Coordinates
version=1
nRows=29
nColumns=24
inDegrees=yes

Units are S.I. units (second, meters, Newtons, ...)
Angles are in degrees.

endheader
time	pelvis_tilt	pelvis_list	pelvis_rotation	pelvis_tx	pelvis_ty	pelvis_tz	hip_flexion_r	hip_adduction_r	hip_rotation_r	knee_angle_r	ankle_angle_r	subtalar_angle_r	mtp_angle_r	hip_flexion_l	hip_adduction_l	hip_rotation_l	knee_angle_l	ankle_angle_l	subtalar_angle_l	mtp_angle_l	lumbar_extension	lumbar_bending	lumbar_rotation
      1.00800000	     -0.76424073	     -2.92761642	     -1.86169670	     -0.09229550	      1.01815153	      0.30947241	    -11.20928570	      7.39081024	      2.01620887	     -8.07891675	     13.86739248	     -3.45284410	      3.06374294	     18.70696428	     -2.19084695	     -2.65130504	      6.91558693	      3.27449858	     -2.55517166	     -1.77759890	     -6.97362044	      0.53010146	      7.15431322
      1.01216667	     -0.61933712	     -2.76521441	     -1.91780365	     -0.08660658	      1.01758708	      0.30919025	    -11.43904937	      7.17397449	      1.89542655	     -8.63867177	     14.28307802	     -3.16187965	      2.92350523	     18.64801606	     -1.95531600	     -2.64274922	      6.31311912	      3.17268604	     -2.63793304	     -1.51297231	     -7.10176546	      0.31047413	      7.20616842
      1.01633333	     -0.54898235	     -2.60660655	     -1.94335705	     -0.08090007	      1.01692833	      0.30890509	    -11.60622293	      6.99021832	      1.92243053	     -9.15001154	     14.46812239	     -3.30827289	      2.90266822	     18.68984558	     -1.72124214	     -2.57130342	      5.63604658	      3.08732112	     -2.74709019	     -1.46086700	     -7.13666193	      0.11048167	      7.20661210
      1.02050000	     -0.44156843	     -2.43009962	     -1.97032313	     -0.07516227	      1.01634683	      0.30860343	    -11.76589499	      6.77401088	      1.82426093	     -9.77241804	     14.82785258	     -3.12052312	      1.59487869	     18.69009251	     -1.46802186	     -2.55649476	      4.94070878	      2.81993784	     -2.90815803	      1.74540633	     -7.20359055	     -0.14966170	      7.18753755
      1.02466667	     -0.33519829	     -2.25796862	     -1.98672521	     -0.06942049	      1.01579009	      0.30829950	    -11.93003313	      6.57816343	      1.83601619	    -10.37037820	     14.99384458	     -3.27808414	      1.59810675	     18.70004334	     -1.21859506	     -2.52299131	      4.19414768	      2.65560383	     -3.06177920	      1.75578097	     -7.26980132	     -0.36956178	      7.19929558
      1.02883333	     -0.20676657	     -2.06995715	     -2.00365550	     -0.06365534	      1.01530739	      0.30797415	    -12.07805981	      6.35491617	      1.75954480	    -11.05413503	     15.23164510	     -3.18226425	      1.60992101	     18.66571504	     -0.95032646	     -2.43534967	      3.47330786	      2.32619235	     -3.39860465	      1.84492209	     -7.37021437	     -0.61516831	      7.21416262
      1.03300000	     -0.09767337	     -1.87793694	     -2.00127586	     -0.05787007	      1.01480339	      0.30763548	    -12.18961001	      6.13910736	      1.70198115	    -11.76818378	     15.38558622	     -3.22892305	      1.62898928	     18.65943428	     -0.67581711	     -2.32604211	      2.72444448	      1.98615702	     -3.73764549	      1.97942019	     -7.43624121	     -0.86931177	      7.19333911
      1.03716667	      0.01894658	     -1.68172970	     -1.99445268	     -0.05206742	      1.01435925	      0.30728376	    -12.28910176	      5.92135086	      1.65156339	    -12.52085068	     15.48924696	     -3.30190899	      1.66386669	     18.64086548	     -0.39619988	     -2.20288319	      1.97142473	      1.60054146	     -4.11455821	      2.14905549	     -7.51452040	     -1.12932987	      7.17365526
      1.04133333	      0.12908605	     -1.49053934	     -1.98077145	     -0.04626052	      1.01394362	      0.30691480	    -12.35188256	      5.71129854	      1.59232496	    -13.33071790	     15.54556604	     -3.39867267	      1.71964363	     18.62631545	     -0.12140721	     -2.05654862	      1.21734351	      1.16992291	     -4.54038808	      2.34632343	     -7.57818658	     -1.38059279	      7.14786064
      1.04550000	      0.24006541	     -1.28658570	     -1.94444252	     -0.04042554	      1.01356119	      0.30650716	    -12.39241891	      5.49204943	      1.50010216	    -14.18607922	     15.56658090	     -3.50036595	      1.82044955	     18.60696157	      0.17354235	     -1.85483910	      0.46152007	      0.72569945	     -5.00860422	      2.60806447	     -7.63782036	     -1.66070278	      7.11913024
      1.04966667	      0.33187289	     -1.08468323	     -1.93482209	     -0.03459350	      1.01320593	      0.30611613	    -12.37344189	      5.26914628	      1.43113541	    -15.11748519	     15.53459641	     -3.59612833	      1.92408547	     18.60490794	      0.45550529	     -1.71982818	     -0.29315985	      0.23232603	     -5.44909019	      2.80303681	     -7.68254172	     -1.91065171	      7.07442280
      1.05383333	      0.44222685	     -0.87327356	     -1.90121612	     -0.02874570	      1.01291929	      0.30567808	    -12.34817459	      5.03671817	      1.31691442	    -16.09733030	     15.45707480	     -3.68421502	      2.06607249	     18.57400075	      0.75574812	     -1.51503766	     -1.03544292	     -0.26833300	     -5.94896529	      3.00549470	     -7.74884607	     -2.18794166	      7.02643229
      1.05800000	      0.53435343	     -0.66162052	     -1.86425404	     -0.02289773	      1.01265014	      0.30522100	    -12.26674105	      4.80252639	      1.18246730	    -17.14463887	     15.32788837	     -3.76468598	      2.24624910	     18.56292262	      1.05523557	     -1.30416145	     -1.78538125	     -0.74947613	     -6.42819345	      3.19924558	     -7.79155021	     -2.46039743	      6.97220942
      1.06216667	      0.62118661	     -0.44276471	     -1.82494230	     -0.01704325	      1.01243361	      0.30473924	    -12.14298252	      4.55484325	      1.01816142	    -18.25750614	     15.14596051	     -3.82700346	      2.47048366	     18.55261805	      1.36201659	     -1.09572571	     -2.53304605	     -1.21921721	     -6.90478937	      3.37995780	     -7.82601046	     -2.73814047	      6.90926164
      1.06633333	      0.72190001	     -0.20575201	     -1.78720650	     -0.01116066	      1.01228840	      0.30426266	    -12.00712356	      4.28467100	      0.85070305	    -19.41505217	     14.85006529	     -3.93287331	      2.60568210	     18.52195868	      1.68047266	     -0.94606112	     -3.28232807	     -1.58343914	     -7.17841270	      3.46163976	     -7.87792768	     -3.06787403	      6.85992080
      1.07050000	      0.79871949	     -0.00083370	     -1.73397830	     -0.00534478	      1.01214458	      0.30369312	    -11.78836125	      4.03376289	      0.60037231	    -20.67735491	     14.60252003	     -3.88293552	      2.91343555	     18.51914875	      1.97858491	     -0.68653297	     -4.03327227	     -2.02620419	     -7.74691912	      3.59723683	     -7.91415580	     -3.29732022	      6.76249687
      1.07466667	      0.86446861	      0.22649444	     -1.68425417	      0.00050675	      1.01204213	      0.30311950	    -11.52688547	      3.75147809	      0.33833967	    -21.98780297	     14.23348499	     -3.87069745	      3.31820543	     18.51787464	      2.29463950	     -0.46910272	     -4.77730872	     -2.38210456	     -8.16688952	      3.72638250	     -7.93181332	     -3.57104129	      6.66880072
      1.07883333	      0.98510794	      0.46396295	     -1.64485133	      0.00635892	      1.01208438	      0.30257006	    -11.30462913	      3.45207134	      0.09554782	    -23.30599981	     13.63232142	     -4.02794511	      7.22224803	     18.44303074	      2.61468470	     -0.29053431	     -5.50413166	     -2.66033008	     -8.52532662	      4.55743780	     -8.01856926	     -3.87783621	      6.61200444
      1.08300000	      1.07182638	      0.69593675	     -1.58846921	      0.01219322	      1.01211837	      0.30193652	    -10.99074289	      3.13492154	     -0.25176353	    -24.73288377	     13.13081657	     -3.89107514	      7.29089724	     18.42028213	      2.92961259	     -0.17121642	     -6.27092106	     -2.82649730	     -8.69765095	      4.54130969	     -8.06848427	     -4.14876217	      6.51308994
      1.08716667	      1.17235533	      0.94133951	     -1.54509018	      0.01804330	      1.01223293	      0.30132359	    -10.66832080	      2.79598190	     -0.57413112	    -26.18259572	     12.48059887	     -3.87797467	      7.35518176	     18.35573155	      3.25337690	     -0.04983812	     -6.99653345	     -2.92331246	     -8.85861517	      4.52591670	     -8.12585842	     -4.44628029	      6.44431188
      1.09133333	      1.22867939	      1.16634923	     -1.48521299	      0.02381595	      1.01230121	      0.30063337	    -10.24104122	      2.45872871	     -0.96142409	    -27.73131311	     11.87979625	     -3.71326813	      7.57771282	     18.34825344	      3.56421176	      0.10740135	     -7.74037600	     -3.03040158	     -9.12670692	      4.47302809	     -8.15750170	     -4.69725988	      6.28797602
      1.09550000	      1.35559435	      1.41727479	     -1.44216705	      0.02964160	      1.01255585	      0.29997902	     -9.88403859	      2.08232061	     -1.32416806	    -29.25788496	     11.05733869	     -3.68041842	      7.69405493	     18.22175506	      3.89255809	      0.21407996	     -8.41449087	     -3.02056921	     -9.22910707	      4.44433953	     -8.25394944	     -4.99183159	      6.22320089
      1.09966667	      1.49126809	      1.66231445	     -1.35976397	      0.03539674	      1.01283375	      0.29919774	     -9.49679854	      1.68357528	     -1.79604975	    -30.83701608	     10.20620930	     -3.50887682	     11.14170857	     18.07580781	      4.23909651	      0.42658656	     -9.06570010	     -3.04703140	     -9.51960687	      3.54877445	     -8.41866987	     -5.25795621	      5.84005894
      1.10383333	      1.50996268	      1.88036844	     -1.31867419	      0.04112858	      1.01298039	      0.29851585	     -8.94305541	      1.31747453	     -2.15800196	    -32.46486132	      9.26437108	     -3.49333725	     11.23565996	     18.07091410	      4.52107293	      0.45436858	     -9.76039859	     -2.89653482	     -9.47580755	      3.53034573	     -8.38720886	     -5.51453003	      5.90801294
      1.10800000	      1.63606585	      2.12236254	     -1.27034499	      0.04686995	      1.01333839	      0.29777957	     -8.49550373	      0.90044268	     -2.56190382	    -34.08292405	      8.25506382	     -3.41681653	     11.30398891	     17.89827842	      4.84058617	      0.52279923	    -10.35584922	     -2.73715769	     -9.49253849	      3.51480898	     -8.49017289	     -5.77126230	      5.83536044
      1.11216667	      1.68921733	      2.34386028	     -1.19648155	      0.05253636	      1.01360862	      0.29700433	     -7.93275362	      0.49502334	     -2.99527133	    -35.74148040	      7.24098433	     -3.33386192	     11.51809898	     17.81095350	      5.13913574	      0.57931586	    -10.96308699	     -2.54788508	     -9.45391158	      3.45538836	     -8.54447317	     -6.02538041	      5.62703131
      1.11633333	      1.83257830	      2.58101502	     -1.14767766	      0.05821992	      1.01406349	      0.29622842	     -7.46161422	      0.04923280	     -3.41440787	    -37.37091854	      6.12207320	     -3.26347636	     11.59856786	     17.56595005	      5.45554382	      0.64063609	    -11.45389682	     -2.33340871	     -9.46942848	      3.43262407	     -8.67327349	     -6.26706386	      5.55484987
      1.12050000	      1.86631730	      2.78554512	     -1.06663928	      0.06382757	      1.01436233	      0.29540810	     -6.84398245	     -0.36067246	     -3.83132208	    -39.01853266	      4.97728101	     -3.27924030	     12.03652518	     17.46035818	      5.73486947	      0.65488031	    -11.99015433	     -2.04126365	     -9.35317636	      3.28996754	     -8.70664500	     -6.44644025	      5.23980346
      1.12466667	      2.00871421	      3.02323516	     -1.00252943	      0.06942744	      1.01487851	      0.29460479	     -6.33822379	     -0.82889367	     -4.24919880	    -40.63944314	      3.84062070	     -3.21392273	     12.12321437	     17.16143162	      6.05712699	      0.74946007	    -12.36977276	     -1.81957689	     -9.34079437	      3.26069455	     -8.86381435	     -6.71619984	      5.19680242
